<?xml version="1.0" encoding="utf-8"?>
<!-- Generator: Adobe Illustrator 22.0.1, SVG Export Plug-In . SVG Version: 6.00 Build 0)  -->
<svg version="1.1" id="Layer_1" xmlns="http://www.w3.org/2000/svg" xmlns:xlink="http://www.w3.org/1999/xlink" x="0px" y="0px"
	 viewBox="0 0 1000 400" style="enable-background:new 0 0 1000 400;" xml:space="preserve">
<style type="text/css">
	.st0{fill:#AF2024;}
	.st1{fill:#FFFFFF;}
</style>
<g>
	<path class="st0" d="M229.1,241.9l74.9,92.8h-52.6L181,247.3h-51.3v87.4H88.8v-185h40.9v56.6H201c4.6,0,8.9-0.9,13-2.6
		c4.2-1.8,7.9-4.3,11-7.4c3.1-3.1,5.5-6.7,7.4-10.8c1.8-4.1,2.6-8.3,2.6-13.1c0-4.8-0.8-9.1-2.6-13.3c-1.8-4.2-4.2-7.7-7.3-10.7
		c-3.1-3-6.9-5.5-11-7.3c-4.1-1.8-8.4-2.6-13-2.6h-58.9V97.5h60.3c10.3,0.2,19.9,2.4,28.8,6.5c8.7,4,16.5,9.3,23.1,16
		c6.7,6.7,12,14.7,15.8,23.7c3.8,9.1,5.7,18.7,5.7,28.7c0,9.3-1.7,18.3-4.9,26.6c-3.2,8.2-7.7,15.7-13.4,22.2
		c-5.7,6.5-12.4,12-19.9,16.4C234.9,239.3,232,240.7,229.1,241.9z M452.4,179.5c15.8,16,23.8,38,23.8,65.6c0,6-2.2,11.1-6.2,15
		c-3.9,3.8-8.8,5.7-14.2,5.7H340.7c2.4,7.5,6.1,13.4,11.5,17.9c7.9,6.7,19.4,10,34.2,10c13.4,0,24-2.7,31.8-8.2l29.2,29.2
		c-15.6,13.3-36.1,20-61,20c-27.6,0-49.6-8-65.5-23.9C305,295,296.9,273,296.9,245.4c0-27.9,8-50,23.9-65.9c15.8-15.9,38-24,65.8-24
		C414.4,155.4,436.6,163.5,452.4,179.5z M432.8,224.9c-2.4-7.7-6.2-13.8-11.6-18.4c-8-6.7-19.6-10.2-34.6-10.2
		c-15,0-26.6,3.4-34.6,10.1c-5.4,4.6-9.3,10.7-11.5,18.4H432.8z M630.9,87.4h40.6v158c0,27.6-8,49.6-23.9,65.5
		c-15.8,15.8-37.9,23.9-65.5,23.9c-27.8,0-49.9-8-65.8-23.9c-15.8-15.8-23.9-37.9-23.9-65.5c0-27.8,8-49.9,23.9-65.8
		c15.8-15.8,38-23.9,65.8-23.9c13.9,0,26.6,2.1,37.7,6.3c3.9,1.5,7.6,3.2,11,5.1V87.4z M630.9,245.4c0-16.3-4.1-28.7-12.1-36.7
		c-8.1-8-20.4-12.1-36.6-12.1c-16.4,0-28.7,4-36.7,12c-8,8-12,20.3-12,36.7c0,16.4,3.9,28.4,12.1,36.6c8,8,20.3,12.1,36.6,12.1
		c16.4,0,28.4-4,36.5-12.2C626.9,273.7,630.9,261.8,630.9,245.4z M129.7,48.5l-88.9,88.9h88.9V48.5z M781.8,200.8l-52.4,74.7h104.8
		L781.8,200.8z"/>
	<g>
		<polygon class="st1" points="687.8,334.7 753,334.7 785.8,287.9 720.7,287.9 		"/>
		<polygon class="st1" points="846.9,200.8 926.3,87.4 861.2,87.4 814.3,154.3 767.4,87.4 702.3,87.4 781.8,200.8 814.3,247.2 
			875.7,334.7 940.8,334.7 		"/>
	</g>
</g>
</svg>
